<svg id="svg2" xmlns:rdf="http://www.w3.org/1999/02/22-rdf-syntax-ns#" xmlns="http://www.w3.org/2000/svg" viewBox="0 0 89.99968 59.982269" height="59.982" width="90" version="1.1" y="0px" x="0px" xmlns:cc="http://creativecommons.org/ns#" xmlns:dc="http://purl.org/dc/elements/1.1/">
 <path id="path4" fill="#C0392B" overflow="visible" d="m6.5254 0.00112v1.8867l-3.9102 0.0098h-0.00977v0.08789l-0.24414 2.3574h0.27539v0.0098l28.412 0.21 10.603 26.309 48.348-9.834-3.334-13.926-37.74 0.301-13.387-5.733-10.779 0.0876-3.231-1.7676h-15.004zm3.7476 6.035-2.5289 15.961-4.5527 2.896-1.0215 1.188-0.3926 14.678-0.166 0.246-1.6113-0.088 0.19727 4h9.5859l1.4238 0.68555 0.7793-0.17383c-0.07587-7.8739 7.0326-13.969 14.727-13.969 7.2051 0 13.119 5.1411 14.273 10.855l20.273-3.0293c3.4839-5.4048 7.2187-6.4969 11.465-7.1797 3.0027-0.48283 6.8409 0.29117 9.8145 1.8691l0.03125-9.7246-42.742 9.2285-9.6582-27.334-19.896-0.10938zm17.637 3.3652c0.49954 0.07117 0.77609 0.7746 1.0352 1.5703 0 0 1.6813 7.2733 1.7363 9.084-0.14587 0.40239-0.49781 0.51684-0.78516 0.58789-1.5185-0.0081-3.4922-0.01872-5.0098-0.0293-0.31406 0.02389-0.7001-0.39285-0.69727-0.84375 0-2.0616-0.0063-7.5308 0-9.5918 0.02515-0.344 0.37053-0.76553 0.72266-0.74609 1.4176 0.01373 2.998-0.03125 2.998-0.03125zm-6.041 0.12695s0.2644 0.05223 0.45117 0.28516c0.18644 0.23321 0.17578 0.67774 0.17578 0.67774l-0.07617 9.3867s-0.08145 0.3702-0.2207 0.53125c-0.27826 0.32227-0.95117 0.30469-0.95117 0.30469l-9.9727 0.01953s-1.0589-0.0032-1.4531-0.32422c-0.39424-0.32215-0.25391-0.875-0.25391-0.875l1.4336-9.1699s0.08035-0.36059 0.37305-0.53906c0.20844-0.12715 0.43788-0.25781 0.6875-0.25781l9.8066-0.03906zm4.8438 24.008c-7.3033 0-13.223 5.9174-13.223 13.221 0 7.3033 5.9194 13.225 13.223 13.225 7.3033 0 13.225-5.9213 13.225-13.225 0-7.3033-5.9213-13.221-13.225-13.221zm47.756 0c-7.3033 0-13.225 5.9174-13.225 13.221 0 7.3033 5.9213 13.225 13.225 13.225 7.3033 0 13.227-5.9213 13.227-13.225 0-7.3033-5.9233-13.221-13.227-13.221zm-47.76 7.7441c3.0253 0 5.4785 2.4513 5.4785 5.4766s-2.4532 5.4785-5.4785 5.4785-5.4766-2.4532-5.4766-5.4785 2.4513-5.4766 5.4766-5.4766zm47.756 0c3.0253 0 5.4805 2.4513 5.4805 5.4766s-2.4552 5.4785-5.4805 5.4785-5.4746-2.4532-5.4746-5.4785 2.4493-5.4766 5.4746-5.4766z"/>
</svg>
