<svg id="svg2" xmlns:rdf="http://www.w3.org/1999/02/22-rdf-syntax-ns#" xmlns="http://www.w3.org/2000/svg" version="1.1" xml:space="preserve" height="62.108" viewBox="0 0 97.39051 62.107436" width="97.391" enable-background="new 0 0 100 100" y="0px" x="0px" xmlns:cc="http://creativecommons.org/ns#" xmlns:dc="http://purl.org/dc/elements/1.1/"><g id="g4146" fill="#1ABB9C" transform="translate(0 -35.284)"><path id="path4" d="m24.906 70.997h9.178c2.863 0 5.187-2.056 5.187-4.598 0-2.538-2.324-4.593-5.187-4.593h-9.178c-2.864 0-5.187 2.056-5.187 4.593 0 2.543 2.323 4.598 5.187 4.598z"/><circle id="circle6" cy="82.698" cx="49.9" r="4.225"/><path id="path8" d="m93.396 35.81-41.173 32.397c-0.758-0.124-1.53-0.203-2.324-0.203-4.864 0-9.17 2.388-11.846 6.038-0.282-0.022-0.552-0.077-0.842-0.077h-17.343c-3.168 0-5.942 1.395-7.723 3.526-0.673-0.142-1.371-0.222-2.084-0.222-5.547 0-10.061 4.514-10.061 10.061s4.514 10.061 10.061 10.061c3.932 0 7.312-2.292 8.965-5.59 0.28 0.024 0.555 0.074 0.842 0.074h17.344c0.393 0 0.762-0.077 1.141-0.12 2.692 3.426 6.864 5.636 11.546 5.636 6.634 0 12.251-4.425 14.068-10.476l18.791-7.737-7.346-22.873 21.032-16.606c1.074-0.842 1.262-2.396 0.42-3.469-0.841-1.071-2.393-1.264-3.468-0.42zm-83.335 56.639c-2.823 0-5.12-2.297-5.12-5.119s2.297-5.119 5.12-5.119 5.119 2.297 5.119 5.119-2.296 5.119-5.119 5.119zm39.839 0c-5.377 0-9.751-4.374-9.751-9.751 0-5.378 4.374-9.752 9.751-9.752s9.751 4.374 9.751 9.752c0 5.377-4.374 9.751-9.751 9.751zm27.899-15.573-13.226 5.445c-0.13-5.098-2.866-9.551-6.927-12.084l14.394-11.288 5.759 17.927z"/></g></svg>
